<?xml version="1.0" encoding="UTF-8" standalone="no"?>
<!-- Created with Inkscape (http://www.inkscape.org/) -->

<svg
   xmlns:dc="http://purl.org/dc/elements/1.1/"
   xmlns:cc="http://creativecommons.org/ns#"
   xmlns:rdf="http://www.w3.org/1999/02/22-rdf-syntax-ns#"
   xmlns:svg="http://www.w3.org/2000/svg"
   xmlns="http://www.w3.org/2000/svg"
   xmlns:sodipodi="http://sodipodi.sourceforge.net/DTD/sodipodi-0.dtd"
   xmlns:inkscape="http://www.inkscape.org/namespaces/inkscape"
   width="90"
   height="103.75"
   id="svg2"
   version="1.1"
   inkscape:version="0.47 r22583"
   sodipodi:docname="Logo.svg">
  <defs
     id="defs4">
    <inkscape:perspective
       sodipodi:type="inkscape:persp3d"
       inkscape:vp_x="0 : 526.18109 : 1"
       inkscape:vp_y="0 : 1000 : 0"
       inkscape:vp_z="744.09448 : 526.18109 : 1"
       inkscape:persp3d-origin="372.04724 : 350.78739 : 1"
       id="perspective10" />
    <clipPath
       id="clipPath2941"
       clipPathUnits="userSpaceOnUse">
      <path
         id="path2943"
         d="m 2780,410 -960,0 0,860 960,0 0,-860" />
    </clipPath>
    <clipPath
       id="clipPath2915"
       clipPathUnits="userSpaceOnUse">
      <path
         id="path2917"
         d="m 0,0 5950,0 0,3820 L 0,3820 0,0 z" />
    </clipPath>
    <clipPath
       id="clipPath2903"
       clipPathUnits="userSpaceOnUse">
      <path
         id="path2905"
         d="m 4150,2690 -720,0 0,790 720,0 0,-790" />
    </clipPath>
    <clipPath
       id="clipPath2891"
       clipPathUnits="userSpaceOnUse">
      <path
         id="path2893"
         d="m 4150,2650 -720,0 0,40 720,0 0,-40" />
    </clipPath>
    <clipPath
       id="clipPath2879"
       clipPathUnits="userSpaceOnUse">
      <path
         id="path2881"
         d="m 6280,2690 -2130,0 0,790 -720,0 0,-790 -1470,0 0,860 4320,0 0,-860" />
    </clipPath>
    <clipPath
       id="clipPath2873"
       clipPathUnits="userSpaceOnUse">
      <path
         id="path2875"
         d="m 0,0 0,3820 5950,0 L 5950,0 0,0 z" />
    </clipPath>
    <clipPath
       id="clipPath2861"
       clipPathUnits="userSpaceOnUse">
      <path
         id="path2863"
         d="M 7980,0 0,0 l 0,3820 7980,0 0,-3820 m -6160,1270 0,-860 960,0 0,860 -960,0 m 1610,1420 0,-40 720,0 0,40 2130,0 0,860 -4320,0 0,-860 1470,0" />
    </clipPath>
    <clipPath
       id="clipPath2855"
       clipPathUnits="userSpaceOnUse">
      <path
         id="path2857"
         d="m 0,0 0,3820 5950,0 L 5950,0 0,0 z" />
    </clipPath>
    <inkscape:perspective
       id="perspective2845"
       inkscape:persp3d-origin="0.5 : 0.33333333 : 1"
       inkscape:vp_z="1 : 0.5 : 1"
       inkscape:vp_y="0 : 1000 : 0"
       inkscape:vp_x="0 : 0.5 : 1"
       sodipodi:type="inkscape:persp3d" />
  </defs>
  <sodipodi:namedview
     id="base"
     pagecolor="#ffffff"
     bordercolor="#666666"
     borderopacity="1.0"
     inkscape:pageopacity="0.0"
     inkscape:pageshadow="2"
     inkscape:zoom="0.89036145"
     inkscape:cx="72.136583"
     inkscape:cy="138.03077"
     inkscape:document-units="px"
     inkscape:current-layer="svg2"
     showgrid="false"
     inkscape:window-width="1280"
     inkscape:window-height="975"
     inkscape:window-x="0"
     inkscape:window-y="0"
     inkscape:window-maximized="1"
     showguides="false"
     inkscape:guide-bbox="true">
    <sodipodi:guide
       orientation="0,1"
       position="26.814953,81.287212"
       id="guide2901" />
    <sodipodi:guide
       orientation="0,1"
       position="50.541272,35.098105"
       id="guide2903" />
    <sodipodi:guide
       orientation="1,0"
       position="32.009472,73.284844"
       id="guide2905" />
    <sodipodi:guide
       orientation="1,0"
       position="50.541272,68.371109"
       id="guide2907" />
    <sodipodi:guide
       orientation="0,1"
       position="58.403247,66.967185"
       id="guide2909" />
    <sodipodi:guide
       orientation="1,0"
       position="39.309878,66.967185"
       id="guide2911" />
    <sodipodi:guide
       orientation="0,1"
       position="71.31935,49.137348"
       id="guide2913" />
    <sodipodi:guide
       orientation="0,1"
       position="58.403247,74.829161"
       id="guide2915" />
    <sodipodi:guide
       orientation="0,1"
       position="65.142084,41.696549"
       id="guide2917" />
  </sodipodi:namedview>
  <metadata
     id="metadata7">
    <rdf:RDF>
      <cc:Work
         rdf:about="">
        <dc:format>image/svg+xml</dc:format>
        <dc:type
           rdf:resource="http://purl.org/dc/dcmitype/StillImage" />
        <dc:title />
      </cc:Work>
    </rdf:RDF>
  </metadata>
  <g
     inkscape:label="Camada 1"
     inkscape:groupmode="layer"
     id="layer1"
     transform="translate(-177.94643,-407.89787)"
     style="display:inline">
    <g
       clip-path="url(#clipPath2879)"
       id="g2877"
       transform="matrix(0.125,0,0,-0.125,-63.303571,705.39787)"
       inkscape:export-filename="/home/caiosba/Colivre/Blogosfero/produtos colivre/logos-balao.png"
       inkscape:export-xdpi="90"
       inkscape:export-ydpi="90">
      <g
         transform="matrix(4326.2,0,0,865.2,1957.9,2686.9)"
         id="g2883" />
    </g>
    <path
       id="path2921"
       style="fill:#f46d1b;fill-opacity:1;fill-rule:evenodd;stroke:none"
       d="m 256.59268,407.89787 -67.2925,0 c -7.40375,0 -11.35375,3.95 -11.35375,11.35375 l 0,66.0425 c 0,7.40375 3.95,11.35375 11.35375,11.35375 l 67.2925,0 c 7.40375,0 11.35375,-3.95 11.35375,-11.35375 l 0,-66.0425 c 0,-7.40375 -3.95,-11.35375 -11.35375,-11.35375" />
    <path
       id="path2923"
       style="fill:#f46d1b;fill-opacity:1;fill-rule:nonzero;stroke:none"
       d="m 232.94643,495.39787 18.75,16.25 3.75,-16.25 -22.5,0" />
    <path
       style="fill:#ffffff;fill-opacity:1;fill-rule:evenodd;stroke:none"
       d="m 201.34375,430.40625 c -7.37627,0.10172 -14.45391,3.95383 -18.65625,10.8125 -6.11125,9.97875 -4.01625,22.83875 4.90625,30.25 8.92125,7.41375 21.5625,6.82 29.78125,-1.40625 l -7.28125,-7.71875 c -4.3875,4.39 -11.175,4.7075 -15.9375,0.75 -4.7625,-3.95625 -5.85625,-10.79875 -2.59375,-16.125 3.26125,-5.32625 9.74875,-7.2925 15.28125,-4.59375 5.5325,2.6975 7.10875,7.07713 11.40492,13.42185 6.41591,9.47522 6.49464,13.15715 16.49317,18.43776 10.92781,5.055 21.77159,1.41375 28.44566,-8.42211 6.11125,-9.97875 4.0475,-22.8075 -4.875,-30.21875 C 249.39125,428.18 236.71875,428.77375 228.5,437 l 7.3125,7.6875 c 4.3875,-4.39 11.14375,-4.7075 15.90625,-0.75 4.7625,3.95625 5.8875,10.83125 2.625,16.15625 -3.26125,5.32625 -9.40459,6.555 -15.11395,4.26469 -1.41254,-0.56664 -2.7745,-1.26596 -4.3642,-3.24168 -2.08738,-2.59423 -3.18816,-4.21093 -4.54851,-6.39586 -1.82027,-2.92364 -2.19181,-3.39787 -3.70537,-5.73002 -1.73494,-2.67325 -1.95041,-2.86573 -4.19028,-6.56564 -2.23987,-3.69992 -4.82899,-6.74107 -10.82951,-10.01717 -3.23945,-1.57969 -6.89533,-2.04806 -10.24818,-2.00182 z"
       id="path2925"
       sodipodi:nodetypes="cccccsssscccccscsssszcc" />
  </g>
  <g
     inkscape:groupmode="layer"
     id="layer2"
     inkscape:label="Camada"
     style="display:none">
    <path
       style="fill:none;stroke:#000000;stroke-width:1px;stroke-linecap:butt;stroke-linejoin:miter;stroke-opacity:1;display:inline"
       d="M 23.375338,58.052267 22.60318,68.651895"
       id="path2845" />
    <path
       transform="translate(-177.94643,-407.89787)"
       id="path2847"
       d="m 181.2238,443.99467 9.80097,4.10967"
       style="fill:none;stroke:#000000;stroke-width:1px;stroke-linecap:butt;stroke-linejoin:miter;stroke-opacity:1;display:inline" />
    <path
       transform="translate(-177.94643,-407.89787)"
       style="fill:none;stroke:#000000;stroke-width:1px;stroke-linecap:butt;stroke-linejoin:miter;stroke-opacity:1;display:inline"
       d="m 212.62214,447.0804 8.77695,-5.99279"
       id="path2849" />
    <path
       transform="translate(-177.94643,-407.89787)"
       id="path2851"
       d="m 216.97431,453.74904 8.77695,-5.99279"
       style="fill:none;stroke:#000000;stroke-width:1px;stroke-linecap:butt;stroke-linejoin:miter;stroke-opacity:1;display:inline" />
    <path
       style="fill:none;stroke:#000000;stroke-width:1px;stroke-linecap:butt;stroke-linejoin:miter;stroke-opacity:1;display:inline"
       d="m 28.290189,34.24019 4.502348,-9.626898"
       id="path2853" />
    <path
       transform="translate(-177.94643,-407.89787)"
       id="path2855"
       d="m 209.56896,444.03716 6.60015,-8.32985"
       style="fill:none;stroke:#000000;stroke-width:1px;stroke-linecap:butt;stroke-linejoin:miter;stroke-opacity:1;display:inline" />
    <path
       transform="translate(-177.94643,-407.89787)"
       style="fill:none;stroke:#000000;stroke-width:1px;stroke-linecap:butt;stroke-linejoin:miter;stroke-opacity:1;display:inline"
       d="m 196.58394,442.32366 -4.07223,-9.81659"
       id="path2858" />
    <path
       transform="translate(-177.94643,-407.89787)"
       id="path2860"
       d="m 220.29573,458.80183 8.87295,-5.84973"
       style="fill:none;stroke:#000000;stroke-width:1px;stroke-linecap:butt;stroke-linejoin:miter;stroke-opacity:1;display:inline" />
    <path
       transform="translate(-177.94643,-407.89787)"
       style="fill:none;stroke:#000000;stroke-width:1px;stroke-linecap:butt;stroke-linejoin:miter;stroke-opacity:1;display:inline"
       d="m 223.94593,464.34733 8.87295,-5.84973"
       id="path2862" />
    <path
       transform="translate(-177.94643,-407.89787)"
       id="path2864"
       d="m 232.15155,472.46997 6.22015,-8.61733"
       style="fill:none;stroke:#000000;stroke-width:1px;stroke-linecap:butt;stroke-linejoin:miter;stroke-opacity:1;display:inline" />
    <path
       transform="translate(-177.94643,-407.89787)"
       style="fill:none;stroke:#000000;stroke-width:1px;stroke-linecap:butt;stroke-linejoin:miter;stroke-opacity:1;display:inline"
       d="m 246.65548,476.1943 -0.88649,-10.59069"
       id="path2866" />
    <path
       transform="translate(-177.94643,-407.89787)"
       id="path2868"
       d="m 256.02885,473.14338 -5.45359,-9.12179"
       style="fill:none;stroke:#000000;stroke-width:1px;stroke-linecap:butt;stroke-linejoin:miter;stroke-opacity:1;display:inline" />
    <path
       transform="translate(-177.94643,-407.89787)"
       style="fill:none;stroke:#000000;stroke-width:1px;stroke-linecap:butt;stroke-linejoin:miter;stroke-opacity:1;display:inline"
       d="m 239.31833,475.58232 2.41603,-10.34947"
       id="path2870" />
    <path
       transform="translate(-177.94643,-407.89787)"
       style="fill:none;stroke:#000000;stroke-width:1px;stroke-linecap:butt;stroke-linejoin:miter;stroke-opacity:1;display:inline"
       d="m 227.42504,468.75056 7.67081,-7.35577"
       id="path2872" />
    <path
       transform="translate(-177.94643,-407.89787)"
       style="fill:none;stroke:#000000;stroke-width:1px;stroke-linecap:butt;stroke-linejoin:miter;stroke-opacity:1;display:inline"
       d="m 214.72803,450.23923 8.77695,-5.99279"
       id="path2874" />
    <path
       transform="translate(-177.94643,-407.89787)"
       style="fill:none;stroke:#000000;stroke-width:1px;stroke-linecap:butt;stroke-linejoin:miter;stroke-opacity:1;display:inline"
       d="m 222.12083,461.60968 8.87295,-5.84973"
       id="path2876" />
    <path
       transform="translate(-177.94643,-407.89787)"
       style="fill:none;stroke:#000000;stroke-width:1px;stroke-linecap:butt;stroke-linejoin:miter;stroke-opacity:1;display:inline"
       d="m 218.47063,456.06418 8.87295,-5.84973"
       id="path2878" />
    <path
       id="path2899"
       d="M 25.14216,33.349566 26.608956,22.82356"
       style="fill:none;stroke:#000000;stroke-width:1px;stroke-linecap:butt;stroke-linejoin:miter;stroke-opacity:1;display:inline" />
  </g>
</svg>
